<?xml version="1.0" standalone="no"?>
<!DOCTYPE svg PUBLIC "-//W3C//DTD SVG 20010904//EN"
 "http://www.w3.org/TR/2001/REC-SVG-20010904/DTD/svg10.dtd">
<svg version="1.0" xmlns="http://www.w3.org/2000/svg"
 width="300.000000pt" height="276.000000pt" viewBox="0 0 300.000000 276.000000"
 preserveAspectRatio="xMidYMid meet">
<metadata>
Created by potrace 1.10, written by Peter Selinger 2001-2011
</metadata>
<g transform="translate(0.000000,276.000000) scale(0.100000,-0.100000)"
fill="#000000" stroke="none">
<path d="M1504 1606 c-42 -19 -64 -52 -64 -99 0 -54 52 -107 105 -107 29 0 45
8 71 34 58 58 42 141 -32 172 -40 17 -41 17 -80 0z m106 -44 c29 -36 26 -78
-9 -113 -31 -31 -59 -36 -94 -17 -32 17 -46 39 -47 74 -1 82 101 120 150 56z"/>
<path d="M1142 1440 c2 -7 37 -21 78 -31 98 -25 207 -77 259 -125 61 -54 63
-63 40 -125 -41 -106 -32 -279 16 -319 20 -16 21 -15 47 56 31 83 32 220 1
286 -50 108 -184 204 -343 243 -36 9 -73 19 -84 22 -12 3 -17 1 -14 -7z m442
-390 c0 -46 -7 -99 -18 -135 l-18 -60 -15 29 c-30 58 -26 197 9 285 l10 26 16
-35 c9 -21 16 -65 16 -110z"/>
<path d="M1853 1435 c-113 -20 -263 -101 -263 -141 0 -20 3 -18 43 20 51 48
132 84 219 97 92 14 98 16 98 29 0 12 -5 12 -97 -5z"/>
<path d="M2164 1375 c-7 -18 3 -35 21 -35 18 0 26 25 12 39 -15 15 -27 14 -33
-4z"/>
<path d="M2477 1384 c-16 -16 -7 -44 14 -44 15 0 20 5 17 22 -3 22 -19 33 -31
22z"/>
<path d="M570 1355 c-10 -11 -10 -19 -2 -27 15 -15 44 -2 40 19 -4 23 -22 27
-38 8z"/>
<path d="M884 1355 c-7 -18 3 -35 21 -35 21 0 28 19 15 35 -16 19 -29 19 -36
0z"/>
<path d="M1720 1130 c0 -149 0 -150 23 -150 23 0 23 0 19 134 l-4 134 37 11
c43 12 79 1 94 -28 6 -11 11 -72 11 -135 0 -111 1 -116 21 -116 20 0 21 4 18
133 l-3 132 37 12 c43 14 80 4 96 -26 6 -11 11 -72 11 -135 0 -111 1 -116 21
-116 20 0 21 4 17 120 -3 115 -4 121 -31 147 -22 23 -36 28 -76 28 -34 0 -55
-6 -70 -19 -20 -18 -22 -18 -40 -2 -25 23 -83 31 -112 16 -17 -10 -24 -10 -27
-1 -2 6 -12 11 -23 11 -18 0 -19 -9 -19 -150z"/>
<path d="M2160 1130 c0 -149 0 -150 23 -150 22 0 22 1 22 150 0 149 0 150 -22
150 -23 0 -23 -1 -23 -150z"/>
<path d="M2269 1251 c-49 -50 -32 -98 48 -136 56 -27 89 -65 79 -90 -9 -25
-54 -37 -92 -25 -42 14 -51 28 -28 44 18 14 12 36 -11 36 -37 0 -26 -64 16
-85 55 -29 133 -7 145 40 11 46 -14 85 -72 111 -82 36 -106 93 -48 115 29 11
79 2 95 -18 9 -11 8 -16 -6 -27 -19 -14 -13 -36 10 -36 39 0 28 63 -15 85 -46
24 -87 19 -121 -14z"/>
<path d="M2470 1130 c0 -143 1 -150 20 -150 19 0 20 7 20 150 0 143 -1 150
-20 150 -19 0 -20 -7 -20 -150z"/>
<path d="M567 1253 c-4 -3 -7 -73 -7 -155 l0 -148 25 0 25 0 0 155 c0 144 -1
155 -18 155 -10 0 -22 -3 -25 -7z"/>
<path d="M710 1253 c-31 -11 -60 -47 -60 -74 0 -37 27 -67 91 -98 60 -30 83
-67 59 -95 -16 -20 -89 -21 -115 -2 -18 13 -18 14 -2 31 13 13 15 20 7 30 -15
18 -40 8 -40 -15 0 -32 12 -50 41 -65 68 -36 148 0 149 66 0 37 -27 66 -90 97
-61 30 -84 68 -60 96 16 20 89 21 115 2 18 -13 18 -14 1 -31 -15 -16 -16 -20
-3 -33 27 -27 48 8 31 53 -13 32 -81 54 -124 38z"/>
<path d="M880 1106 c0 -155 0 -156 23 -156 22 0 22 1 20 152 -1 147 -2 153
-22 156 -21 3 -21 0 -21 -152z"/>
<path d="M967 1253 c-4 -3 -7 -73 -7 -155 l0 -148 25 0 25 0 0 139 c0 152 -1
151 63 151 66 0 79 -30 76 -173 -2 -109 -1 -112 21 -115 l22 -4 -4 136 c-3
133 -3 135 20 145 36 17 80 13 102 -9 18 -18 20 -33 20 -146 0 -124 0 -125 22
-122 22 3 23 5 19 118 -1 63 -7 123 -13 133 -12 23 -67 57 -93 57 -12 0 -37
-9 -58 -19 -36 -18 -38 -18 -74 0 -43 22 -66 24 -96 8 -16 -9 -22 -9 -25 0 -4
12 -35 15 -45 4z"/>
<path d="M1665 883 c8 -34 16 -42 22 -25 4 10 8 10 19 1 17 -14 19 -12 28 24
7 29 -9 39 -17 10 -4 -17 -5 -17 -6 0 0 9 -5 17 -10 17 -5 0 -12 -8 -14 -17
-4 -17 -5 -17 -6 0 0 9 -6 17 -12 17 -7 0 -9 -10 -4 -27z"/>
<path d="M1760 880 c0 -22 5 -30 18 -30 14 0 15 2 2 10 -8 5 -10 10 -5 10 6 0
11 9 12 20 1 11 -4 20 -13 20 -9 0 -14 -11 -14 -30z"/>
<path d="M1810 880 c0 -18 5 -30 13 -30 9 0 12 10 9 30 -2 17 -8 30 -13 30 -5
0 -9 -13 -9 -30z"/>
<path d="M1860 880 c0 -18 5 -30 13 -30 9 0 12 10 9 30 -2 17 -8 30 -13 30 -5
0 -9 -13 -9 -30z"/>
<path d="M1910 880 c0 -30 14 -41 23 -17 4 10 6 10 6 0 2 -29 21 -10 20 20 0
26 -2 29 -9 12 -7 -18 -8 -19 -15 -2 -11 27 -25 20 -25 -13z"/>
<path d="M1980 880 c0 -24 4 -30 23 -30 14 0 18 3 10 8 -8 5 -9 13 -3 22 15
23 12 30 -10 30 -16 0 -20 -7 -20 -30z"/>
<path d="M2040 897 c0 -7 6 -19 13 -26 10 -11 10 -13 0 -7 -7 4 -13 2 -13 -3
0 -14 27 -14 36 0 3 6 0 15 -7 20 -11 7 -11 9 -1 9 7 0 10 5 7 10 -9 15 -35
12 -35 -3z"/>
<path d="M2100 897 c0 -7 6 -19 13 -26 10 -11 10 -13 0 -7 -7 4 -13 2 -13 -3
0 -14 27 -14 36 0 3 6 0 15 -7 20 -11 7 -11 9 -1 9 7 0 10 5 7 10 -9 15 -35
12 -35 -3z"/>
<path d="M2180 895 c-7 -8 -10 -22 -6 -30 6 -17 41 -20 51 -5 3 6 -3 10 -14
10 -12 0 -21 5 -21 10 0 6 7 10 16 10 8 0 12 5 9 10 -9 14 -21 12 -35 -5z"/>
<path d="M2250 880 c0 -22 5 -30 18 -30 14 0 15 2 2 10 -8 5 -10 10 -5 10 6 0
11 9 12 20 1 11 -4 20 -13 20 -9 0 -14 -11 -14 -30z"/>
<path d="M2300 880 c0 -30 14 -41 23 -17 4 10 6 10 6 0 2 -29 21 -10 20 20 0
26 -2 29 -9 12 -7 -18 -8 -19 -15 -2 -11 27 -25 20 -25 -13z"/>
<path d="M2376 883 c7 -30 12 -39 18 -32 2 2 6 16 10 32 5 23 3 27 -14 27 -17
0 -19 -4 -14 -27z"/>
<path d="M2430 880 c0 -24 4 -30 18 -28 35 6 36 58 1 58 -14 0 -19 -7 -19 -30z"/>
<path d="M2497 903 c-4 -3 -7 -17 -7 -30 0 -17 6 -23 23 -23 18 0 19 2 7 10
-8 5 -10 10 -5 10 6 0 11 9 12 20 2 19 -16 27 -30 13z"/>
</g>
</svg>
